<svg width="40" height="40" viewBox="0 0 40 40" fill="none" xmlns="http://www.w3.org/2000/svg">
<path d="M26.6388 24.2977C26.4098 24.1367 23.9043 22.4696 23.5972 22.2819C23.4634 22.1999 23.3002 22.1599 23.1227 22.1599C22.8937 22.1599 22.6401 22.2266 22.3927 22.357C22.1516 22.4841 21.4211 22.9 21.0637 23.1043C20.7489 22.8831 20.0094 22.3163 18.8441 21.149C17.6861 19.9907 17.1145 19.2446 16.8921 18.9279C17.0958 18.5705 17.511 17.8395 17.6373 17.5989C17.8765 17.1453 17.9037 16.6924 17.7095 16.387C17.5273 16.0991 15.8681 13.5812 15.6969 13.3443C15.5358 13.1208 15.2464 13 14.9326 13C14.6849 13 14.4222 13.0749 14.1944 13.2336C14.1724 13.2493 11.9711 14.8464 12.0003 15.7548C12.0815 18.3065 14.5593 21.3052 16.6236 23.3716C18.6879 25.4381 21.6847 27.9183 24.2446 28H24.2657C25.1619 28 26.7374 25.8249 26.7526 25.8034C27.1659 25.2124 27.0153 24.5618 26.6388 24.2977ZM25.9925 25.2581C25.3991 26.0806 24.5566 26.9395 24.2269 27.0624C22.4722 26.9801 20.0101 25.4369 17.285 22.7095C14.5602 19.9819 13.0184 17.5208 12.937 15.7708C13.0554 15.4398 13.9137 14.5914 14.7281 14.002C14.7885 13.9604 14.8628 13.9363 14.9323 13.9363C14.9477 13.9363 14.9606 13.9377 14.9707 13.9395C15.2338 14.3222 16.6463 16.4619 16.9026 16.8619C16.9035 16.9041 16.8893 17.011 16.809 17.1636C16.7237 17.3263 16.4577 17.8005 16.0795 18.4638L15.7853 18.9799L16.1266 19.4662C16.381 19.8278 16.9863 20.614 18.1822 21.811C19.3832 23.0133 20.1661 23.6172 20.526 23.8704L21.012 24.2119L21.5278 23.917C22.0276 23.6312 22.6315 23.2888 22.828 23.1856C22.9856 23.1025 23.0934 23.0959 23.1227 23.0959C23.1274 23.0959 23.1313 23.0959 23.1346 23.0964C23.4927 23.3213 25.6772 24.7727 26.0629 25.0374C26.0692 25.0748 26.0634 25.1563 25.9925 25.2581ZM22.0128 18.6023L26.0364 14.6004L26.0236 16.8686C26.0193 17.058 26.1693 17.2225 26.3585 17.2181L26.5985 17.2179C26.7879 17.2132 26.9442 17.1008 26.9481 16.9117L26.9577 13.5325C26.9577 13.5292 26.9451 13.5269 26.9451 13.5236L26.9636 13.3523C26.9654 13.2572 26.9435 13.1725 26.8817 13.1119C26.8214 13.0508 26.7365 13.0136 26.6422 13.0162L26.4712 13.0201C26.468 13.0201 26.4654 13.0215 26.4617 13.022L23.1072 13.007C22.9182 13.0112 22.762 13.1676 22.7575 13.3569L22.7571 13.5971C22.7858 13.8199 22.9608 13.9505 23.15 13.9463L25.361 13.9521L21.3514 17.9402C21.1687 18.123 21.1687 18.4196 21.3514 18.6023C21.5341 18.7849 21.8302 18.7849 22.0128 18.6023L22.0128 18.6023Z" fill="white"/>
<circle cx="20" cy="20" r="19.5" stroke="white"/>
</svg>
