<svg width="58" height="59" viewBox="0 0 58 59" fill="none" xmlns="http://www.w3.org/2000/svg">
<path d="M44.7395 15.9032C42.0761 12.7139 38.5066 10.409 34.5039 9.2937C30.5012 8.17844 26.2541 8.30548 22.3252 9.65801C18.3963 11.0105 14.971 13.5247 12.503 16.8675C10.0349 20.2104 8.64069 24.2241 8.50486 28.377C8.36904 32.53 9.49805 36.6263 11.7424 40.1232C13.9867 43.6201 17.2404 46.3528 21.0725 47.9591C24.9046 49.5655 29.1343 49.9698 33.2014 49.1184C37.2684 48.2671 40.9809 46.2003 43.847 43.1919L43.2214 42.5959C40.4761 45.4776 36.92 47.4573 33.0244 48.2728C29.1287 49.0883 25.0772 48.701 21.4065 47.1623C17.7359 45.6236 14.6192 43.0061 12.4695 39.6565C10.3197 36.3069 9.23828 32.3833 9.36839 28.4053C9.49849 24.4273 10.834 20.5827 13.198 17.3807C15.5621 14.1787 18.8431 11.7705 22.6064 10.4749C26.3698 9.1794 30.4379 9.05771 34.272 10.126C38.1061 11.1943 41.5251 13.4021 44.0763 16.457L44.7395 15.9032Z" fill="white"/>
<path d="M35.5935 29.0841L29.4383 23.1519ZM35.5935 29.0841L29.4383 35.0164ZM35.5935 29.0841L21.2312 29.0841Z" fill="white"/>
<path d="M35.5935 29.0841L29.4383 23.1519M35.5935 29.0841L29.4383 35.0164M35.5935 29.0841L21.2312 29.0841" stroke="white" stroke-width="2" stroke-linecap="round" stroke-linejoin="round"/>
</svg>
