<svg width="211" height="27" viewBox="0 0 211 27" fill="none" xmlns="http://www.w3.org/2000/svg">
<path d="M0.234375 22.5V22.2656H0.667969C1.32422 22.2656 1.75 22.1562 1.94531 21.9375C2.14062 21.7109 2.26172 21.25 2.30859 20.5547L3 6.70312V6.19922C3 5.91016 2.91406 5.71094 2.74219 5.60156C2.57812 5.49219 2.22266 5.4375 1.67578 5.4375H0.621094V5.21484H4.51172L11.3555 18.9727C11.6289 19.5352 11.7656 19.8789 11.7656 20.0039H11.8828C11.8828 19.832 12 19.4883 12.2344 18.9727L19.0781 5.21484H23.0391V5.4375H22.1484C21.5391 5.4375 21.1367 5.51953 20.9414 5.68359C20.7539 5.83984 20.6602 6.10937 20.6602 6.49219C20.6602 6.55469 20.6641 6.65625 20.6719 6.79688C20.6797 6.9375 20.6836 7.05078 20.6836 7.13672L21.3164 20.5547C21.3398 21.2656 21.4492 21.7305 21.6445 21.9492C21.8398 22.1602 22.2891 22.2656 22.9922 22.2656H23.5664V22.4766H16.6758V22.2656H17.6367C18.3086 22.2656 18.75 22.1914 18.9609 22.043C19.1719 21.8867 19.2773 21.6484 19.2773 21.3281V20.918L18.7383 8.27344C18.7227 7.98438 18.7148 7.62891 18.7148 7.20703H18.5508C18.5508 7.27734 18.4141 7.60547 18.1406 8.19141L11.0391 22.5703L10.9688 22.7344H10.8984L10.8281 22.5703L3.82031 8.46094C3.625 8.01562 3.52734 7.67969 3.52734 7.45312H3.43359C3.43359 7.71094 3.42578 7.98438 3.41016 8.27344L2.73047 20.8711C2.73047 20.9414 2.72656 21.043 2.71875 21.1758C2.71094 21.3086 2.70703 21.3984 2.70703 21.4453C2.70703 21.7578 2.8125 21.9766 3.02344 22.1016C3.24219 22.2266 3.69922 22.2891 4.39453 22.2891H5.33203V22.5H0.234375ZM26.7773 22.6875C25.8867 22.6875 25.4414 22.0586 25.4414 20.8008C26.043 20.9102 26.5312 20.9648 26.9062 20.9648C27.8281 20.9648 28.5273 20.8047 29.0039 20.4844C29.4805 20.1562 29.8672 19.668 30.1641 19.0195L30.3867 18.5625C30.4648 18.3828 30.5039 18.1758 30.5039 17.9414C30.5039 17.7148 30.4375 17.4727 30.3047 17.2148L25.418 6.94922C25.2539 6.59766 25.1406 6.35938 25.0781 6.23438C25.0156 6.10937 24.918 5.96875 24.7852 5.8125C24.6602 5.65625 24.5273 5.55859 24.3867 5.51953C24.2461 5.48047 24.0586 5.46094 23.8242 5.46094H23.4258V5.23828H28.5352V5.46094H26.6367V5.50781C26.9023 5.58594 27.1992 5.96094 27.5273 6.63281L31.3125 14.5078C31.4453 14.7812 31.5117 15.1172 31.5117 15.5156V15.5625L31.6992 15.5156L35.4023 6.94922C35.5117 6.63672 35.5664 6.38672 35.5664 6.19922C35.5664 5.70703 35.1328 5.46094 34.2656 5.46094H33.0703V5.23828H37.6055V5.4375H37.4414C37.2227 5.4375 37.043 5.46094 36.9023 5.50781C36.7617 5.54687 36.6328 5.64062 36.5156 5.78906C36.4062 5.92969 36.3203 6.05859 36.2578 6.17578C36.2031 6.29297 36.1133 6.50391 35.9883 6.80859C35.9805 6.82422 35.9727 6.83984 35.9648 6.85547C35.9648 6.86328 35.9609 6.87891 35.9531 6.90234C35.9453 6.91797 35.9375 6.93359 35.9297 6.94922L30.3281 19.7695C29.9141 20.7148 29.3906 21.4375 28.7578 21.9375C28.1328 22.4375 27.4727 22.6875 26.7773 22.6875ZM42.0469 12.8086V12.3984H43.0078C44.0703 12.3984 44.9609 12.0352 45.6797 11.3086C46.3984 10.582 46.7578 9.69531 46.7578 8.64844C46.7578 7.64844 46.4375 6.875 45.7969 6.32812C45.1641 5.78125 44.3164 5.50781 43.2539 5.50781C42.6602 5.50781 42.1328 5.60547 41.6719 5.80078C41.2188 5.99609 40.8594 6.26172 40.5938 6.59766C40.3359 6.93359 40.1367 7.28516 39.9961 7.65234C39.8555 8.01953 39.7656 8.41016 39.7266 8.82422V9.60938H39.293V5.32031H39.5039V6.28125L39.6094 6.30469C39.7344 6.08594 39.9258 5.91797 40.1836 5.80078C41.0273 5.34766 42.0352 5.10547 43.207 5.07422C44.707 5.07422 45.9453 5.40234 46.9219 6.05859C47.8984 6.70703 48.3867 7.55469 48.3867 8.60156C48.3867 9.47656 48.0273 10.3164 47.3086 11.1211C46.5898 11.918 45.7969 12.3906 44.9297 12.5391V12.5625C46.2188 12.7188 47.3164 13.3203 48.2227 14.3672C49.1367 15.4141 49.5938 16.5742 49.5938 17.8477C49.5938 19.293 48.9922 20.4648 47.7891 21.3633C46.5859 22.2617 45.0586 22.7109 43.207 22.7109C42.4727 22.7109 41.6992 22.5625 40.8867 22.2656C40.082 21.9609 39.3672 21.5273 38.7422 20.9648L39.1055 20.6484C39.668 21.1641 40.3242 21.5625 41.0742 21.8438C41.832 22.125 42.543 22.2656 43.207 22.2656C44.5508 22.2656 45.6172 21.8789 46.4062 21.1055C47.2031 20.332 47.6016 19.2383 47.6016 17.8242C47.6016 16.3789 47.1992 15.1836 46.3945 14.2383C45.5977 13.2852 44.5977 12.8086 43.3945 12.8086H42.0469ZM68.6953 13.1367H53.7188V13.4297C53.7188 16.25 54.3828 18.4297 55.7109 19.9688C57.0391 21.5 58.8477 22.2656 61.1367 22.2656C62.8945 22.2656 64.4492 21.9414 65.8008 21.293C67.1523 20.6367 68.2148 19.7188 68.9883 18.5391L69.3516 18.8086C68.5312 20.043 67.4023 21 65.9648 21.6797C64.5273 22.3516 62.8789 22.6875 61.0195 22.6875C59.1836 22.6875 57.5312 22.3242 56.0625 21.5977C54.5938 20.8633 53.4375 19.8203 52.5938 18.4688C51.75 17.1094 51.3281 15.5586 51.3281 13.8164C51.3281 12.082 51.7305 10.5508 52.5352 9.22266C53.3477 7.89453 54.4883 6.86719 55.957 6.14062C57.4336 5.41406 59.1367 5.05078 61.0664 5.05078C62.5977 5.05078 64 5.35156 65.2734 5.95312C66.5547 6.54688 67.582 7.40234 68.3555 8.51953C69.1289 9.63672 69.5156 10.9062 69.5156 12.3281V12.4453C69.5156 12.6406 69.4336 12.8047 69.2695 12.9375C69.1133 13.0703 68.9219 13.1367 68.6953 13.1367ZM53.7422 12.7031L67.043 12.5391C67.168 12.5391 67.2305 12.4688 67.2305 12.3281C67.2305 10.2734 66.6641 8.62109 65.5312 7.37109C64.3984 6.11328 62.9023 5.48438 61.043 5.48438C58.7852 5.48438 57.0312 6.10156 55.7812 7.33594C54.5391 8.5625 53.8594 10.3516 53.7422 12.7031ZM70.8633 22.5V22.2891H71.7773C72.3945 22.2891 72.7852 22.1914 72.9492 21.9961C73.1133 21.8008 73.1953 21.4023 73.1953 20.8008V6.94922C73.1953 6.34766 73.1133 5.94922 72.9492 5.75391C72.7852 5.55859 72.3945 5.46094 71.7773 5.46094H70.8633V5.23828H77.3438V5.46094H76.6758C76.0586 5.46094 75.6641 5.55859 75.4922 5.75391C75.3203 5.94922 75.2344 6.34766 75.2344 6.94922V20.8711L82.7461 5.23828H86.8711V5.46094H85.9336C85.3242 5.46094 84.9375 5.55859 84.7734 5.75391C84.6172 5.94141 84.5391 6.33984 84.5391 6.94922V20.8008C84.5391 21.4102 84.6172 21.8125 84.7734 22.0078C84.9375 22.1953 85.3242 22.2891 85.9336 22.2891H86.8711V22.5H80.3672V22.2891H81.082C81.6836 22.2891 82.0664 22.1914 82.2305 21.9961C82.3945 21.8008 82.4766 21.4023 82.4766 20.8008V6.87891L74.9648 22.5H70.8633ZM75.6094 0.925781L76.5469 0.855469C76.5469 1.50391 76.8125 2.06641 77.3438 2.54297C77.8828 3.01953 78.5234 3.25781 79.2656 3.25781C80 3.25781 80.6289 3.01953 81.1523 2.54297C81.6836 2.06641 81.9492 1.50391 81.9492 0.855469L82.8867 0.925781C82.8867 1.69141 82.5312 2.34375 81.8203 2.88281C81.1172 3.41406 80.2656 3.67969 79.2656 3.67969C78.2578 3.67969 77.3945 3.41406 76.6758 2.88281C75.9648 2.34375 75.6094 1.69141 75.6094 0.925781ZM94.8398 22.5L94.9102 22.2891H95.8477C96.4727 22.2891 96.8594 22.2109 97.0078 22.0547C97.1641 21.8906 97.2422 21.4727 97.2422 20.8008V6.72656C97.2422 6.15625 97.1641 5.80469 97.0078 5.67188C96.8594 5.53125 96.4727 5.46094 95.8477 5.46094H94.9102V5.23828H100.957V5.46094H100.723C100.082 5.46094 99.6836 5.53125 99.5273 5.67188C99.3789 5.80469 99.3047 6.15625 99.3047 6.72656V12.1289C99.8281 12.1289 100.215 12.1094 100.465 12.0703C100.715 12.0312 100.895 11.9414 101.004 11.8008L105.188 7.01953C105.492 6.64453 105.645 6.33984 105.645 6.10547C105.645 5.67578 105.188 5.46094 104.273 5.46094H104.027V5.23828H109.863V5.46094H109.523C108.852 5.46094 108.168 5.58984 107.473 5.84766C106.777 6.10547 106.176 6.52734 105.668 7.11328L101.461 11.9414L101.484 12.0352C102.281 12.1992 102.977 12.4531 103.57 12.7969C104.164 13.1328 104.637 13.5391 104.988 14.0156C105.34 14.4844 105.613 14.957 105.809 15.4336C106.012 15.9023 106.172 16.4336 106.289 17.0273C106.352 17.3398 106.41 17.7031 106.465 18.1172C106.527 18.5312 106.578 18.8906 106.617 19.1953C106.656 19.4922 106.707 19.8086 106.77 20.1445C106.832 20.4727 106.906 20.75 106.992 20.9766C107.078 21.2031 107.188 21.4141 107.32 21.6094C107.461 21.8047 107.637 21.9492 107.848 22.043C108.059 22.1367 108.305 22.1836 108.586 22.1836C108.969 22.1836 109.387 22.0234 109.84 21.7031L110.18 21.4688L110.32 21.6328L109.98 21.8789C109.246 22.4727 108.527 22.7695 107.824 22.7695C107.324 22.7695 106.887 22.6719 106.512 22.4766C106.137 22.2734 105.84 22.0625 105.621 21.8438C105.41 21.6172 105.207 21.2383 105.012 20.707C104.824 20.168 104.695 19.7617 104.625 19.4883C104.562 19.2148 104.465 18.7266 104.332 18.0234C104.262 17.6875 104.211 17.4375 104.18 17.2734C104.055 16.6875 103.93 16.1914 103.805 15.7852C103.688 15.3789 103.508 14.9453 103.266 14.4844C103.031 14.0156 102.758 13.6406 102.445 13.3594C102.141 13.0703 101.738 12.832 101.238 12.6445C100.746 12.4492 100.18 12.3516 99.5391 12.3516H99.2109V20.8008C99.2109 21.4727 99.2891 21.8906 99.4453 22.0547C99.6094 22.2109 100.012 22.2891 100.652 22.2891H101.555V22.5H94.8398ZM114.246 5.69531V5.82422C114.535 6.17578 114.68 6.67188 114.68 7.3125V15.3516H116.168C117.832 15.3516 119.098 14.9414 119.965 14.1211C120.84 13.293 121.277 12.0938 121.277 10.5234C121.277 8.95312 120.84 7.75781 119.965 6.9375C119.098 6.10937 117.832 5.69531 116.168 5.69531H114.246ZM110.309 22.5V22.2891H111.223C111.863 22.2891 112.258 22.2227 112.406 22.0898C112.562 21.9492 112.641 21.5898 112.641 21.0117V6.72656C112.641 6.15625 112.562 5.80469 112.406 5.67188C112.258 5.53125 111.863 5.46094 111.223 5.46094H110.309V5.23828H116.953C118.945 5.23828 120.547 5.72266 121.758 6.69141C122.977 7.66016 123.586 8.9375 123.586 10.5234C123.586 12.0938 122.977 13.3633 121.758 14.332C120.547 15.3008 118.945 15.7852 116.953 15.7852H114.68V21.0117C114.68 21.582 114.758 21.9375 114.914 22.0781C115.078 22.2188 115.48 22.2891 116.121 22.2891H116.766V22.5H110.309ZM134.062 13.7695V8.625C134.062 7.59375 133.797 6.8125 133.266 6.28125C132.734 5.75 131.957 5.48438 130.934 5.48438C129.668 5.48438 128.684 5.78516 127.98 6.38672C127.277 6.98047 126.902 7.76562 126.855 8.74219L126.785 10.2305H126.305L126.598 4.57031H126.855L126.785 5.84766C126.723 6.30078 126.684 6.55469 126.668 6.60938L126.855 6.65625C126.871 6.60938 126.926 6.51953 127.02 6.38672C127.113 6.25391 127.195 6.16016 127.266 6.10547C128.312 5.40234 129.527 5.05078 130.91 5.05078C132.613 5.05078 133.914 5.38672 134.812 6.05859C135.719 6.72266 136.172 7.68359 136.172 8.94141V20.8008C136.172 21.3086 136.219 21.6406 136.312 21.7969C136.414 21.9453 136.656 22.0195 137.039 22.0195C137.094 22.0195 137.18 22.0156 137.297 22.0078C137.414 22 137.504 21.9961 137.566 21.9961L138.023 21.9727L138.047 22.1836C136.992 22.2773 136.016 22.4531 135.117 22.7109V22.5234C135.117 22.1328 135.035 21.4766 134.871 20.5547C134.707 19.6328 134.621 19.0508 134.613 18.8086H134.344C133.969 20.168 133.395 21.1562 132.621 21.7734C131.848 22.3828 130.941 22.6875 129.902 22.6875C128.465 22.6875 127.277 22.3242 126.34 21.5977C125.402 20.8711 124.934 19.9258 124.934 18.7617C124.934 17.2617 125.578 16.0547 126.867 15.1406C128.164 14.2266 129.871 13.7695 131.988 13.7695H134.062ZM134.062 14.1914H132.141C130.664 14.1914 129.473 14.6133 128.566 15.457C127.668 16.293 127.219 17.3945 127.219 18.7617C127.219 19.7461 127.496 20.5391 128.051 21.1406C128.605 21.7422 129.336 22.043 130.242 22.043C130.719 22.043 131.18 21.9414 131.625 21.7383C132.07 21.5352 132.477 21.2422 132.844 20.8594C133.211 20.4688 133.504 19.9492 133.723 19.3008C133.949 18.6445 134.062 17.9023 134.062 17.0742V14.1914ZM156.68 13.1367H141.703V13.4297C141.703 16.25 142.367 18.4297 143.695 19.9688C145.023 21.5 146.832 22.2656 149.121 22.2656C150.879 22.2656 152.434 21.9414 153.785 21.293C155.137 20.6367 156.199 19.7188 156.973 18.5391L157.336 18.8086C156.516 20.043 155.387 21 153.949 21.6797C152.512 22.3516 150.863 22.6875 149.004 22.6875C147.168 22.6875 145.516 22.3242 144.047 21.5977C142.578 20.8633 141.422 19.8203 140.578 18.4688C139.734 17.1094 139.312 15.5586 139.312 13.8164C139.312 12.082 139.715 10.5508 140.52 9.22266C141.332 7.89453 142.473 6.86719 143.941 6.14062C145.418 5.41406 147.121 5.05078 149.051 5.05078C150.582 5.05078 151.984 5.35156 153.258 5.95312C154.539 6.54688 155.566 7.40234 156.34 8.51953C157.113 9.63672 157.5 10.9062 157.5 12.3281V12.4453C157.5 12.6406 157.418 12.8047 157.254 12.9375C157.098 13.0703 156.906 13.1367 156.68 13.1367ZM141.727 12.7031L155.027 12.5391C155.152 12.5391 155.215 12.4688 155.215 12.3281C155.215 10.2734 154.648 8.62109 153.516 7.37109C152.383 6.11328 150.887 5.48438 149.027 5.48438C146.77 5.48438 145.016 6.10156 143.766 7.33594C142.523 8.5625 141.844 10.3516 141.727 12.7031ZM162.785 22.0664H165.785C167.434 22.0664 168.758 21.6484 169.758 20.8125C170.758 19.9766 171.258 18.875 171.258 17.5078C171.258 16.0625 170.727 14.8789 169.664 13.957C168.609 13.0273 167.258 12.5625 165.609 12.5625H164.227V12.1523H165.281C166.453 12.1523 167.414 11.8516 168.164 11.25C168.914 10.6406 169.289 9.86328 169.289 8.91797C169.289 7.94141 168.887 7.15625 168.082 6.5625C167.285 5.96875 166.23 5.67188 164.918 5.67188H162.785V5.69531C163.074 5.96094 163.219 6.37891 163.219 6.94922V20.8008C163.219 21.3477 163.074 21.7539 162.785 22.0195V22.0664ZM158.848 22.5V22.2656H159.762C160.402 22.2656 160.797 22.1992 160.945 22.0664C161.102 21.9258 161.18 21.5664 161.18 20.9883V6.72656C161.18 6.15625 161.102 5.80469 160.945 5.67188C160.797 5.53125 160.402 5.46094 159.762 5.46094H158.848V5.23828H165.281C167.156 5.23828 168.668 5.57422 169.816 6.24609C170.965 6.91016 171.539 7.78516 171.539 8.87109C171.539 9.61328 171.195 10.3203 170.508 10.9922C169.82 11.6641 168.902 12.0742 167.754 12.2227V12.3281C168.582 12.3828 169.359 12.5703 170.086 12.8906C170.82 13.2031 171.434 13.6016 171.926 14.0859C172.426 14.5625 172.816 15.1016 173.098 15.7031C173.387 16.2969 173.531 16.8984 173.531 17.5078C173.531 18.4844 173.207 19.3555 172.559 20.1211C171.918 20.8867 171.047 21.4766 169.945 21.8906C168.852 22.2969 167.625 22.5 166.266 22.5H158.848ZM192.188 13.1367H177.211V13.4297C177.211 16.25 177.875 18.4297 179.203 19.9688C180.531 21.5 182.34 22.2656 184.629 22.2656C186.387 22.2656 187.941 21.9414 189.293 21.293C190.645 20.6367 191.707 19.7188 192.48 18.5391L192.844 18.8086C192.023 20.043 190.895 21 189.457 21.6797C188.02 22.3516 186.371 22.6875 184.512 22.6875C182.676 22.6875 181.023 22.3242 179.555 21.5977C178.086 20.8633 176.93 19.8203 176.086 18.4688C175.242 17.1094 174.82 15.5586 174.82 13.8164C174.82 12.082 175.223 10.5508 176.027 9.22266C176.84 7.89453 177.98 6.86719 179.449 6.14062C180.926 5.41406 182.629 5.05078 184.559 5.05078C186.09 5.05078 187.492 5.35156 188.766 5.95312C190.047 6.54688 191.074 7.40234 191.848 8.51953C192.621 9.63672 193.008 10.9062 193.008 12.3281V12.4453C193.008 12.6406 192.926 12.8047 192.762 12.9375C192.605 13.0703 192.414 13.1367 192.188 13.1367ZM177.234 12.7031L190.535 12.5391C190.66 12.5391 190.723 12.4688 190.723 12.3281C190.723 10.2734 190.156 8.62109 189.023 7.37109C187.891 6.11328 186.395 5.48438 184.535 5.48438C182.277 5.48438 180.523 6.10156 179.273 7.33594C178.031 8.5625 177.352 10.3516 177.234 12.7031ZM194.168 22.0664H196.008C196.531 21.6523 197.043 21.1367 197.543 20.5195C198.051 19.8945 198.543 19.1641 199.02 18.3281C199.496 17.4922 199.883 16.5312 200.18 15.4453C200.484 14.3516 200.641 13.2383 200.648 12.1055V7.23047C200.648 6.93359 200.641 6.69531 200.625 6.51562C200.617 6.33594 200.582 6.17578 200.52 6.03516C200.457 5.88672 200.387 5.78125 200.309 5.71875C200.238 5.64844 200.109 5.59375 199.922 5.55469C199.742 5.50781 199.559 5.48047 199.371 5.47266C199.191 5.46484 198.926 5.46094 198.574 5.46094H198V5.23828H210.844V5.46094H209.906C209.289 5.46094 208.898 5.55859 208.734 5.75391C208.57 5.94922 208.488 6.34766 208.488 6.94922V22.0664H210.844V26.5312H209.906V23.9883C209.906 23.3867 209.82 22.9883 209.648 22.793C209.477 22.5977 209.082 22.5 208.465 22.5H196.535C195.918 22.5 195.527 22.5977 195.363 22.793C195.199 22.9883 195.117 23.3867 195.117 23.9883V26.5312H194.168V22.0664ZM198.914 22.0664H206.449V5.67188H201.316V11.5312C201.316 13.7891 201.09 15.8242 200.637 17.6367C200.191 19.4414 199.617 20.918 198.914 22.0664Z" fill="white"/>
</svg>
