<svg width="40" height="40" viewBox="0 0 40 40" fill="none" xmlns="http://www.w3.org/2000/svg">
<path d="M13.8458 25.8332C13.4625 25.8332 13.1425 25.7048 12.8858 25.4482C12.6286 25.1909 12.5 24.8707 12.5 24.4873V15.5123C12.5 15.129 12.6286 14.809 12.8858 14.5523C13.1425 14.2951 13.4625 14.1665 13.8458 14.1665H26.1542C26.5375 14.1665 26.8575 14.2951 27.1142 14.5523C27.3714 14.809 27.5 15.129 27.5 15.5123V24.4873C27.5 24.8707 27.3717 25.1907 27.115 25.4473C26.8578 25.7046 26.5375 25.8332 26.1542 25.8332H13.8458ZM20 20.0957L13.3333 15.7373V24.4873C13.3333 24.6368 13.3814 24.7596 13.4775 24.8557C13.5736 24.9518 13.6964 24.9998 13.8458 24.9998H26.1542C26.3036 24.9998 26.4264 24.9518 26.5225 24.8557C26.6186 24.7596 26.6667 24.6368 26.6667 24.4873V15.7373L20 20.0957ZM20 19.1665L26.41 14.9998H13.59L20 19.1665ZM13.3333 15.7373V14.9998V24.4873C13.3333 24.6368 13.3814 24.7596 13.4775 24.8557C13.5736 24.9518 13.6964 24.9998 13.8458 24.9998H13.3333V15.7373Z" fill="white"/>
<circle cx="20" cy="20" r="19.5" stroke="white"/>
</svg>
