<svg width="40" height="40" viewBox="0 0 40 40" fill="none" xmlns="http://www.w3.org/2000/svg">
<path d="M20 15.1562C19.4128 15.1562 18.8389 15.3304 18.3507 15.6566C17.8624 15.9828 17.4819 16.4464 17.2572 16.9889C17.0325 17.5314 16.9737 18.1283 17.0883 18.7042C17.2028 19.2801 17.4856 19.809 17.9008 20.2242C18.316 20.6394 18.8449 20.9222 19.4208 21.0367C19.9967 21.1513 20.5936 21.0925 21.1361 20.8678C21.6786 20.6431 22.1422 20.2626 22.4684 19.7743C22.7946 19.2861 22.9688 18.7122 22.9688 18.125C22.9688 17.3376 22.656 16.5825 22.0992 16.0258C21.5425 15.469 20.7874 15.1562 20 15.1562ZM20 20.1562C19.5983 20.1562 19.2055 20.0371 18.8715 19.8139C18.5375 19.5907 18.2771 19.2735 18.1234 18.9023C17.9696 18.5312 17.9294 18.1227 18.0078 17.7287C18.0862 17.3347 18.2796 16.9728 18.5637 16.6887C18.8478 16.4046 19.2097 16.2112 19.6037 16.1328C19.9977 16.0544 20.4062 16.0946 20.7773 16.2484C21.1485 16.4021 21.4657 16.6625 21.6889 16.9965C21.9121 17.3305 22.0312 17.7233 22.0312 18.125C22.0312 18.6637 21.8172 19.1804 21.4363 19.5613C21.0554 19.9422 20.5387 20.1562 20 20.1562ZM20 11.4062C18.2187 11.4083 16.511 12.1168 15.2514 13.3764C13.9918 14.636 13.2833 16.3437 13.2812 18.125C13.2812 20.5398 14.4016 23.1047 16.5211 25.5422C17.4777 26.6478 18.5544 27.6435 19.7312 28.5109C19.81 28.5661 19.9039 28.5956 20 28.5956C20.0961 28.5956 20.19 28.5661 20.2688 28.5109C21.4456 27.6435 22.5223 26.6478 23.4789 25.5422C25.5984 23.1047 26.7188 20.5422 26.7188 18.125C26.7167 16.3437 26.0082 14.636 24.7486 13.3764C23.489 12.1168 21.7813 11.4083 20 11.4062ZM20 27.5398C18.8281 26.6352 14.2188 22.7828 14.2188 18.125C14.2188 16.5917 14.8278 15.1212 15.912 14.037C16.9962 12.9528 18.4667 12.3437 20 12.3437C21.5333 12.3437 23.0038 12.9528 24.088 14.037C25.1722 15.1212 25.7812 16.5917 25.7812 18.125C25.7812 22.7828 21.1719 26.6352 20 27.5398Z" fill="white"/>
<circle cx="20" cy="20" r="19.5" stroke="white"/>
</svg>
